<?xml version="1.0" encoding="UTF-8" standalone="no"?>
<!-- Created with Inkscape (http://www.inkscape.org/) -->

<svg
   width="215.89999mm"
   height="230mm"
   viewBox="0 0 215.89999 230"
   version="1.1"
   id="svg1"
   sodipodi:docname="testDrawing.svg"
   inkscape:version="1.4.4 (dcaf3e7, 2026-05-05)"
   xmlns:inkscape="http://www.inkscape.org/namespaces/inkscape"
   xmlns:sodipodi="http://sodipodi.sourceforge.net/DTD/sodipodi-0.dtd"
   xmlns="http://www.w3.org/2000/svg"
   xmlns:svg="http://www.w3.org/2000/svg">
  <sodipodi:namedview
     id="namedview1"
     pagecolor="#ffffff"
     bordercolor="#000000"
     borderopacity="0.25"
     inkscape:showpageshadow="2"
     inkscape:pageopacity="0.0"
     inkscape:pagecheckerboard="0"
     inkscape:deskcolor="#d1d1d1"
     inkscape:document-units="mm"
     inkscape:zoom="3.8472139"
     inkscape:cx="445.12732"
     inkscape:cy="539.74125"
     inkscape:window-width="3440"
     inkscape:window-height="1369"
     inkscape:window-x="1912"
     inkscape:window-y="-8"
     inkscape:window-maximized="1"
     inkscape:current-layer="layer1" />
  <defs
     id="defs1">
    <inkscape:path-effect
       effect="spiro"
       id="path-effect15"
       is_visible="true"
       lpeversion="1" />
    <inkscape:path-effect
       effect="spiro"
       id="path-effect13"
       is_visible="true"
       lpeversion="1" />
    <inkscape:path-effect
       effect="powerstroke"
       message=""
       id="path-effect12"
       is_visible="true"
       lpeversion="1.3"
       scale_width="1"
       interpolator_type="CentripetalCatmullRom"
       interpolator_beta="0.75"
       start_linecap_type="round"
       end_linecap_type="round"
       offset_points="40.040238,4.2464968"
       linejoin_type="spiro"
       miter_limit="4"
       not_jump="true"
       sort_points="true" />
    <inkscape:path-effect
       effect="simplify"
       id="path-effect11"
       is_visible="true"
       lpeversion="1.3"
       threshold="0.012"
       steps="1"
       smooth_angles="0"
       helper_size="0"
       simplify_individual_paths="false"
       simplify_just_coalesce="false"
       step="1" />
  </defs>
  <g
     inkscape:label="Layer 1"
     inkscape:groupmode="layer"
     id="layer1">
    <rect
       style="fill:none;stroke-width:1;stroke:#000000;stroke-opacity:1;stroke-dasharray:none"
       id="rect"
       width="70"
       height="45"
       x="15"
       y="40" />
    <circle
       style="fill:#000000;stroke-width:0.256169"
       id="Circle"
       cx="167.5"
       cy="87.5"
       r="17.5" />
    <ellipse
       style="fill:#000000;stroke-width:0.269448"
       id="filledEllipse"
       cx="105"
       cy="110"
       rx="15"
       ry="25" />
    <ellipse
       style="fill:#000000;stroke-width:0.283653"
       id="rotatedEllipse"
       cx="-44.382065"
       cy="155.17807"
       rx="15"
       ry="25"
       transform="rotate(-32.150124)" />
    <rect
       style="fill:#000000;stroke-width:0.272;stroke-dasharray:none"
       id="filledRect"
       width="50"
       height="60"
       x="140"
       y="140" />
    <path
       style="fill:none;fill-opacity:1;stroke:#000000;stroke-width:1;stroke-dasharray:none;stroke-opacity:1"
       d="m 177.22047,30.291677 -51.52416,-15.287388 -31.140977,24.346584 24.912787,41.33257 52.37346,-22.647984 -43.88047,-34.821276 -10.1916,18.118387 8.2099,18.401488 24.91278,-7.926795 16.70289,-42.1818699 41.61567,65.9622519 z"
       id="path1" />
    <path
       style="fill:none;fill-opacity:1;stroke:#000000;stroke-width:1;stroke-dasharray:4,2;stroke-opacity:1;stroke-dashoffset:0"
       d="m 29.442378,99.368029 90.591932,86.911641 -83.797535,21.79868 149.193595,7.36059"
       id="path2" />
    <path
       style="fill:#000000;stroke-width:1;stroke-dasharray:none"
       d="M 10.720939,26.634834 37.523287,8.7107629 64.49315,20.101761 72.198824,30.822699"
       id="filledPath" />
    <rect
       style="fill:#000000;fill-opacity:1;stroke:#000000;stroke-width:0.277383;stroke-dasharray:none;stroke-dashoffset:0;stroke-opacity:1"
       id="transformedRect"
       width="20"
       height="35"
       x="65"
       y="130"
       transform="matrix(0.980483,-0.19660388,0.45826642,0.88881488,0,0)" />
    <path
       style="fill:#000000;stroke-width:1;stroke-dasharray:none;stroke:#000000;stroke-opacity:1"
       d="M 77.224265,13.736203 146.57534,5.8630134"
       id="line" />
    <path
       style="fill:none;stroke:#000000;stroke-width:1;stroke-dasharray:none;stroke-opacity:1"
       d="m 149.05451,14.544163 c 4.56316,-5.8891675 11.51074,-9.8738127 18.89815,-10.8386438 7.48997,-0.9782266 15.28109,1.1330824 21.44405,5.5005147 6.16297,4.3674321 10.69041,10.9065751 12.92464,18.1221701 3.51092,11.338731 1.48485,23.839092 5.07127,35.154168 1.00544,3.172149 2.43735,6.195514 3.45994,9.362178 3.84443,11.905097 1.66897,24.779606 0.61058,37.24519 -0.85319,10.04877 -0.95207,20.14741 -0.8141,30.23139 0.34652,25.32623 2.18165,50.70526 0.0783,75.94637 -0.14624,1.75492 -0.31528,3.52685 -0.87573,5.19629 -0.56045,1.66944 -1.55368,3.24995 -3.03822,4.1972 -1.23076,0.78532 -2.74375,1.08862 -4.19494,0.92876 -1.45119,-0.15986 -2.83743,-0.76845 -3.99647,-1.65621 -2.31809,-1.77553 -3.66585,-4.57093 -4.33324,-7.41357 -1.18234,-5.03597 -0.45644,-10.34149 0.92411,-15.32677 1.38056,-4.98528 3.4011,-9.772 4.86854,-14.7324 4.39505,-14.85661 3.60914,-31.19235 -2.19182,-45.55843"
       id="spline1"
       inkscape:path-effect="#path-effect13"
       inkscape:original-d="m 149.05451,14.544163 c 6.36114,-3.458485 12.62964,-7.1948834 18.89815,-10.8386438 6.2685,-3.64376055 22.91245,15.7793358 34.36869,23.6226848 11.45623,7.843348 3.31301,23.436111 5.07127,35.154168 1.75827,11.718054 2.30663,6.17361 3.45994,9.362178 1.15331,3.188568 0.61058,25.033655 0.61058,37.24519 0,12.21154 -0.67842,20.12295 -0.8141,30.23139 -0.13569,10.10844 0.0522,50.52654 0.0783,75.94637 0.0261,25.41983 -2.6093,6.31452 -3.91395,9.39349 -1.30465,3.07898 -8.34977,-5.58391 -12.52465,-8.14102 -4.17489,-2.55712 3.86176,-19.93508 5.79265,-30.05917 1.93088,-10.1241 -1.46121,-30.37229 -2.19182,-45.55843" />
    <path
       style="fill:none;stroke:#000000;stroke-width:1;stroke-dasharray:none;stroke-opacity:1"
       d="m 169.42434,130.22591 c 0,0 35.627,-13.61284 39.4162,-29.60119 3.34745,-14.12439 -6.15491,-33.015906 -19.38145,-38.996071 -13.62132,-6.158657 -43.33604,11.54176 -43.33604,11.54176 l 0.21777,0.217768"
       id="spline2"
       sodipodi:nodetypes="caacc" />
    <path
       style="fill:none;stroke:#000000;stroke-width:1;stroke-dasharray:none;stroke-opacity:1"
       d="m 95.037904,148.37396 c 0,0 42.697316,19.98119 39.435446,37.92451 -2.66724,14.67229 -41.097474,17.67796 -41.097474,17.67796"
       id="spline3"
       sodipodi:nodetypes="cac" />
    <path
       style="fill:none;stroke:#000000;stroke-width:1;stroke-dasharray:none;stroke-opacity:1"
       d="m 95.491185,183.72988 c 0,0 -63.170154,-10.12323 -77.813228,11.63421 -3.703491,5.50284 0.291756,14.36945 4.683903,19.33998 3.493434,3.95347 9.554589,5.0962 14.807177,5.59047 11.046614,1.03949 32.787322,-5.74156 32.787322,-5.74156"
       id="spline4"
       sodipodi:nodetypes="caaac" />
    <path
       style="fill:none;stroke:#000000;stroke-width:1;stroke-dasharray:none;stroke-opacity:1"
       d="m 30.570532,177.40173 c -6.562073,-0.30361 -13.207804,2.18596 -17.95528,6.72627 -4.7474761,4.54032 -7.5308902,11.06844 -7.5201631,17.63752 0.00835,5.11552 1.6799744,10.21512 4.7015309,14.34293 3.0215562,4.12781 7.3774552,7.26252 12.2512192,8.81656"
       id="spline5"
       inkscape:path-effect="#path-effect15"
       inkscape:original-d="m 30.570532,177.40173 c -8.553573,8.09038 -16.92187,16.18077 -25.4754431,24.36379 -8.5535735,8.18302 11.2400741,15.47054 16.9527501,23.15949" />
    <path
       sodipodi:type="star"
       style="fill:none;stroke:#000000;stroke-width:1;stroke-dasharray:none;stroke-opacity:1"
       id="pentagon"
       inkscape:flatsided="true"
       sodipodi:sides="5"
       sodipodi:cx="64.033489"
       sodipodi:cy="103.12142"
       sodipodi:r1="17.219142"
       sodipodi:r2="13.930578"
       sodipodi:arg1="0.44834268"
       sodipodi:arg2="1.0766612"
       inkscape:rounded="0"
       inkscape:randomized="0"
       d="m 79.550804,110.58545 -17.820915,9.60033 -14.637423,-13.98203 8.77449,-18.241704 20.060356,2.70804 z"
       inkscape:transform-center-x="0.71185029"
       inkscape:transform-center-y="0.95249126" />
    <path
       sodipodi:type="star"
       style="fill:none;stroke:#000000;stroke-width:1;stroke-dasharray:none;stroke-opacity:1"
       id="indentedPolygon"
       inkscape:flatsided="true"
       sodipodi:sides="8"
       sodipodi:cx="10.802515"
       sodipodi:cy="106.14645"
       sodipodi:r1="13.05455"
       sodipodi:r2="12.060831"
       sodipodi:arg1="1.1769277"
       sodipodi:arg2="1.5696268"
       inkscape:rounded="1"
       inkscape:randomized="0"
       d="m 15.812377,118.20143 c -9.2264824,3.83438 -0.756086,3.82447 -9.9915129,0.0117 -9.2354265,-3.81279 -3.2389471,2.16968 -7.0733298,-7.0568 -3.8343826,-9.22648 -3.8244761,-0.75609 -0.011686,-9.99151 3.8127906,-9.235431 -2.1696789,-3.238952 7.0568039,-7.073334 9.2264823,-3.834383 0.7560868,-3.824477 9.9915133,-0.01169 9.235426,3.812791 3.238947,-2.169679 7.07333,7.0568 3.834382,9.22649 3.824476,0.75609 0.01168,9.99152 -3.81279,9.23542 2.169679,3.23894 -7.056804,7.07333 z"
       transform="translate(9.3934911,9.7066075)" />
    <path
       sodipodi:type="star"
       style="fill:none;stroke:#000000;stroke-width:1;stroke-dasharray:none;stroke-opacity:1"
       id="star"
       inkscape:flatsided="false"
       sodipodi:sides="5"
       sodipodi:cx="124.46376"
       sodipodi:cy="144.34665"
       sodipodi:r1="15.384979"
       sodipodi:r2="7.6924893"
       sodipodi:arg1="1.786154"
       sodipodi:arg2="2.4144726"
       inkscape:rounded="0"
       inkscape:randomized="0"
       d="m 121.17604,159.37624 -2.45928,-9.91623 -9.56295,-3.59577 8.67094,-5.40319 0.46466,-10.20607 7.81821,6.57688 9.85013,-2.71193 -3.83902,9.46793 5.62305,8.53 -10.19085,-0.72538 z"
       inkscape:transform-center-x="1.0159619"
       inkscape:transform-center-y="0.46896051" />
    <path
       d="m 143.87482,136.78106 q 0,0.22852 -0.1077,0.45179 -0.10507,0.22327 -0.29681,0.37824 -0.21014,0.16811 -0.49119,0.26267 -0.27843,0.0946 -0.67244,0.0946 -0.42289,0 -0.76174,-0.0788 -0.33621,-0.0788 -0.68556,-0.23378 v -0.65141 h 0.0368 q 0.29682,0.2469 0.68557,0.38087 0.38875,0.13396 0.73022,0.13396 0.48331,0 0.75123,-0.18124 0.27055,-0.18125 0.27055,-0.48332 0,-0.26004 -0.12871,-0.38349 -0.12608,-0.12346 -0.38612,-0.19175 -0.197,-0.0525 -0.42815,-0.0867 -0.22853,-0.0341 -0.48594,-0.0867 -0.52009,-0.11032 -0.77225,-0.37562 -0.24953,-0.26792 -0.24953,-0.69607 0,-0.49119 0.41501,-0.80377 0.41502,-0.3152 1.05331,-0.3152 0.41239,0 0.75648,0.0788 0.3441,0.0788 0.60939,0.19437 v 0.61465 h -0.0368 q -0.22327,-0.18912 -0.58838,-0.31258 -0.36248,-0.12608 -0.74335,-0.12608 -0.41764,0 -0.67243,0.17336 -0.25216,0.17337 -0.25216,0.44654 0,0.24428 0.12608,0.3835 0.12608,0.13921 0.44391,0.21276 0.1681,0.0368 0.47805,0.0893 0.30995,0.0525 0.52534,0.10769 0.43603,0.11558 0.65667,0.34935 0.22065,0.23378 0.22065,0.65405 z m 3.07585,1.11634 h -0.49119 v -0.31258 q -0.0657,0.0447 -0.17862,0.12608 -0.11032,0.0788 -0.21538,0.12609 -0.12346,0.0604 -0.28369,0.0998 -0.16023,0.042 -0.37561,0.042 -0.39663,0 -0.67244,-0.26267 -0.2758,-0.26267 -0.2758,-0.66981 0,-0.33359 0.14184,-0.53847 0.14447,-0.20751 0.40977,-0.32571 0.26792,-0.1182 0.64353,-0.16023 0.37562,-0.042 0.8064,-0.063 v -0.0762 q 0,-0.16811 -0.0604,-0.27843 -0.0578,-0.11032 -0.1681,-0.17336 -0.10507,-0.0604 -0.25217,-0.0814 -0.14709,-0.021 -0.30732,-0.021 -0.19437,0 -0.4334,0.0525 -0.23903,0.0499 -0.49382,0.1471 h -0.0263 v -0.5017 q 0.14447,-0.0394 0.41765,-0.0867 0.27317,-0.0473 0.53847,-0.0473 0.30995,0 0.53847,0.0525 0.23115,0.0499 0.39926,0.17336 0.16548,0.12083 0.25216,0.31258 0.0867,0.19175 0.0867,0.47543 z m -0.49119,-0.72234 v -0.8169 q -0.2259,0.0131 -0.53322,0.0394 -0.3047,0.0263 -0.48331,0.0762 -0.21276,0.0604 -0.3441,0.18913 -0.13133,0.12608 -0.13133,0.34935 0,0.25216 0.15235,0.38087 0.15234,0.12608 0.46492,0.12608 0.26004,0 0.47543,-0.0998 0.21539,-0.10244 0.39926,-0.24428 z m 5.72355,0.72234 h -0.49381 v -1.67057 q 0,-0.18913 -0.0184,-0.36511 -0.0158,-0.17599 -0.0709,-0.28106 -0.0604,-0.11295 -0.17336,-0.17073 -0.11295,-0.0578 -0.32571,-0.0578 -0.20751,0 -0.41502,0.10507 -0.20751,0.10244 -0.41502,0.26266 0.008,0.0604 0.0131,0.14185 0.005,0.0788 0.005,0.1576 v 1.87808 h -0.49382 v -1.67057 q 0,-0.19438 -0.0184,-0.36774 -0.0158,-0.17599 -0.0709,-0.28106 -0.0604,-0.11294 -0.17336,-0.1681 -0.11295,-0.0578 -0.32571,-0.0578 -0.20226,0 -0.40714,0.0998 -0.20226,0.0998 -0.40451,0.25479 v 2.19066 h -0.49382 v -2.93401 h 0.49382 v 0.32571 q 0.23115,-0.19175 0.45967,-0.29945 0.23115,-0.10769 0.49119,-0.10769 0.29944,0 0.50695,0.12608 0.21014,0.12608 0.31258,0.34935 0.29944,-0.25216 0.54635,-0.36248 0.24691,-0.11295 0.52796,-0.11295 0.48331,0 0.71184,0.29419 0.23114,0.29156 0.23114,0.8169 z m 3.5329,-1.50247 q 0,0.35723 -0.10244,0.65405 -0.10244,0.29419 -0.28893,0.49907 -0.17337,0.19438 -0.40977,0.30207 -0.23377,0.10507 -0.49644,0.10507 -0.22852,0 -0.41502,-0.0499 -0.18387,-0.0499 -0.37562,-0.15497 v 1.22929 h -0.49381 v -4.01621 h 0.49381 v 0.30732 q 0.19701,-0.16548 0.44129,-0.2758 0.24691,-0.11295 0.52534,-0.11295 0.53059,0 0.82478,0.40188 0.29681,0.39926 0.29681,1.11109 z m -0.50958,0.0131 q 0,-0.53059 -0.18124,-0.79326 -0.18124,-0.26267 -0.55686,-0.26267 -0.21276,0 -0.42815,0.0919 -0.21538,0.0919 -0.41239,0.24166 v 1.66269 q 0.21014,0.0946 0.35986,0.12871 0.15235,0.0342 0.3441,0.0342 0.41239,0 0.64354,-0.27843 0.23114,-0.27843 0.23114,-0.82478 z m 1.77827,1.48933 h -0.49381 v -4.08713 h 0.49381 z m 3.43309,-1.41579 h -2.16177 q 0,0.27055 0.0814,0.47281 0.0814,0.19963 0.22327,0.32833 0.13659,0.12609 0.32308,0.18913 0.18912,0.063 0.41502,0.063 0.29944,0 0.60151,-0.1182 0.3047,-0.12083 0.4334,-0.23641 h 0.0263 v 0.53848 q -0.24954,0.10506 -0.50958,0.17598 -0.26004,0.0709 -0.54635,0.0709 -0.73022,0 -1.13998,-0.394 -0.40977,-0.39663 -0.40977,-1.12422 0,-0.71972 0.39138,-1.14261 0.394,-0.4229 1.03492,-0.4229 0.59363,0 0.91408,0.34672 0.32309,0.34673 0.32309,0.98501 z m -0.48069,-0.37824 q -0.003,-0.38875 -0.197,-0.60151 -0.19175,-0.21276 -0.58575,-0.21276 -0.39663,0 -0.63303,0.23377 -0.23378,0.23378 -0.2653,0.5805 z m 5.94945,-1.65481 h -1.3974 v 3.44884 h -0.52008 v -3.44884 h -1.3974 v -0.4623 h 3.31488 z m 2.36402,2.03305 h -2.16176 q 0,0.27055 0.0814,0.47281 0.0814,0.19963 0.22326,0.32833 0.13659,0.12609 0.32309,0.18913 0.18912,0.063 0.41501,0.063 0.29945,0 0.60152,-0.1182 0.30469,-0.12083 0.4334,-0.23641 h 0.0263 v 0.53848 q -0.24954,0.10506 -0.50958,0.17598 -0.26004,0.0709 -0.54635,0.0709 -0.73022,0 -1.13999,-0.394 -0.40976,-0.39663 -0.40976,-1.12422 0,-0.71972 0.39138,-1.14261 0.394,-0.4229 1.03491,-0.4229 0.59363,0 0.91409,0.34672 0.32308,0.34673 0.32308,0.98501 z m -0.48068,-0.37824 q -0.003,-0.38875 -0.197,-0.60151 -0.19175,-0.21276 -0.58575,-0.21276 -0.39663,0 -0.63304,0.23377 -0.23377,0.23378 -0.26529,0.5805 z m 3.7693,1.79403 h -0.62253 l -0.83266,-1.12685 -0.83791,1.12685 h -0.57525 l 1.14524,-1.46307 -1.13473,-1.47094 h 0.62253 l 0.8274,1.10846 0.83004,-1.10846 h 0.57787 l -1.15312,1.44468 z m 2.16702,-0.0263 q -0.13922,0.0368 -0.3047,0.0604 -0.16285,0.0236 -0.29156,0.0236 -0.44916,0 -0.68294,-0.24166 -0.23378,-0.24165 -0.23378,-0.77487 v -1.56026 h -0.33358 v -0.41501 h 0.33358 v -0.84317 h 0.49382 v 0.84317 h 1.01916 v 0.41501 h -1.01916 v 1.33699 q 0,0.23115 0.0105,0.36248 0.0105,0.12871 0.0735,0.24166 0.0578,0.10507 0.1576,0.15497 0.10244,0.0473 0.30995,0.0473 0.12082,0 0.25216,-0.0341 0.13133,-0.0368 0.18912,-0.0604 h 0.0263 z"
       id="text"
       style="font-size:5.37946px;stroke:#000000;stroke-width:0.1;stroke-linejoin:round"
       transform="scale(0.99446168,1.0055692)"
       aria-label="Sample Text" />
    <path
       style="fill:#000000;stroke:#000000;stroke-width:0.0999999;stroke-linejoin:round"
       id="filledSlice"
       sodipodi:type="arc"
       sodipodi:cx="16.549999"
       sodipodi:cy="42"
       sodipodi:rx="11.986917"
       sodipodi:ry="11.970042"
       sodipodi:start="0.0017453293"
       sodipodi:end="1.3497503"
       sodipodi:arc-type="slice"
       d="M 28.536898,42.020892 A 11.986917,11.970042 0 0 1 19.178135,53.678795 L 16.549999,42 Z" />
    <path
       style="fill:none;stroke:#000000;stroke-width:1;stroke-linejoin:round;stroke-dasharray:none"
       id="hollowSlice"
       sodipodi:type="arc"
       sodipodi:cx="32.299999"
       sodipodi:cy="42"
       sodipodi:rx="11.986896"
       sodipodi:ry="11.970042"
       sodipodi:start="0.0017453293"
       sodipodi:end="1.3497503"
       sodipodi:arc-type="slice"
       d="M 44.286877,42.020892 A 11.986896,11.970042 0 0 1 34.92813,53.678795 L 32.299999,42 Z" />
    <path
       style="fill:#000000;stroke:#000000;stroke-width:0.0999999;stroke-linejoin:round"
       id="filledArc"
       sodipodi:type="arc"
       sodipodi:cx="16.549999"
       sodipodi:cy="54.091919"
       sodipodi:rx="11.986917"
       sodipodi:ry="11.970042"
       sodipodi:start="0.0017453293"
       sodipodi:end="1.3497503"
       sodipodi:arc-type="arc"
       d="M 28.536898,54.112811 A 11.986917,11.970042 0 0 1 19.178135,65.770714"
       sodipodi:open="true" />
    <path
       style="fill:none;stroke:#000000;stroke-width:1;stroke-linejoin:round;stroke-dasharray:none"
       id="hollowArc"
       sodipodi:type="arc"
       sodipodi:cx="32.299999"
       sodipodi:cy="54.091919"
       sodipodi:rx="11.986896"
       sodipodi:ry="11.970042"
       sodipodi:start="0.0017453293"
       sodipodi:end="1.3497503"
       sodipodi:arc-type="arc"
       d="M 44.286877,54.112811 A 11.986896,11.970042 0 0 1 34.92813,65.770714"
       sodipodi:open="true" />
    <path
       style="fill:#000000;stroke:#000000;stroke-width:0.0999999;stroke-linejoin:round"
       id="filledChord"
       sodipodi:type="arc"
       sodipodi:cx="16.549999"
       sodipodi:cy="66.18383"
       sodipodi:rx="11.986917"
       sodipodi:ry="11.970042"
       sodipodi:start="0.0017453293"
       sodipodi:end="1.3497503"
       sodipodi:arc-type="chord"
       d="M 28.536898,66.204722 A 11.986917,11.970042 0 0 1 19.178135,77.862625 Z"
       sodipodi:open="true" />
    <path
       style="fill:none;stroke:#000000;stroke-width:1;stroke-linejoin:round;stroke-dasharray:none"
       id="hollowChord"
       sodipodi:type="arc"
       sodipodi:cx="32.299999"
       sodipodi:cy="66.18383"
       sodipodi:rx="11.987"
       sodipodi:ry="11.970042"
       sodipodi:start="0.0017453293"
       sodipodi:end="1.3497503"
       sodipodi:arc-type="chord"
       d="M 44.286981,66.204722 A 11.987,11.970042 0 0 1 34.928153,77.862625 Z"
       sodipodi:open="true" />
  </g>
  <g
     inkscape:groupmode="layer"
     id="layer2"
     inkscape:label="Layer 2">
    <ellipse
       style="fill:none;stroke:#000000;stroke-width:1;stroke-dasharray:none;stroke-opacity:1"
       id="ellipse"
       cx="62.435654"
       cy="72.338104"
       rx="12.239"
       ry="9.5188999" />
    <path
       id="shearedEllipse"
       style="stroke-width:1.35635"
       transform="matrix(0.98422978,0.1768947,0.63125352,0.77557656,0,0)"
       d="M 45.223598,60.092846 A 18.012381,11.427493 0 0 1 27.211218,71.520339 18.012381,11.427493 0 0 1 9.1988373,60.092846 18.012381,11.427493 0 0 1 27.211218,48.665353 18.012381,11.427493 0 0 1 45.223598,60.092846 Z" />
    <path
       id="rect2"
       d="M 2.3570609,132.58467 H 22.784921 v 37.51655 H 2.3570609 Z" />
    <path
       style="fill:#000000;fill-opacity:1;stroke:none;stroke-width:1;stroke-dasharray:none;stroke-opacity:1"
       d="m 67.232204,145.28235 1.519875,31.4704 45.238691,7.957 c -16.972012,-11.923 -31.622583,-25.40532 -46.758566,-39.4274 z"
       id="triangle"
       sodipodi:nodetypes="cccc" />
    <path
       style="fill:#000000;fill-opacity:1;stroke:none;stroke-width:1;stroke-dasharray:none;stroke-opacity:1"
       d="m 186.44956,80.684009 0.45328,1.510935 16.01593,20.397646 -14.95827,3.32406 13.14515,-24.628266 z"
       id="twoFillRegions" />
    <path
       style="fill:#000000;fill-opacity:1;stroke:none;stroke-width:1;stroke-dasharray:none;stroke-opacity:1"
       d="m 169.35507,108.56821 22.99939,-2.10087 -5.47136,12.60891 -1.88049,-20.62641 -14.39349,24.07266 z"
       id="threeFillRegions"
       sodipodi:nodetypes="cccccc" />
    <path
       style="fill:#000000;fill-opacity:1;stroke:none;stroke-width:1;stroke-dasharray:none;stroke-opacity:1"
       d="m 122.23476,97.304308 15.8398,-9.383003 -12.36465,-0.74027 9.06562,9.821088 11.18093,-10.878744 -24.93045,-3.172968 z"
       id="nonzeroFill"
       sodipodi:nodetypes="ccccccc" />
    <path
       style="fill:#000000;fill-opacity:1;fill-rule:evenodd;stroke:none;stroke-width:1;stroke-dasharray:none;stroke-opacity:1"
       d="M 90.29857,83.950849 103.26223,74.29516 91.282021,71.702428 100.8483,83.325016 110.14638,71.076597 87.88465,69.199103 Z"
       id="evenoddFill"
       sodipodi:nodetypes="ccccccc" />
  </g>
</svg>
