<?xml version="1.0" encoding="UTF-8" standalone="no"?>
<!--
  ============================================================================
  COMPREHENSIVE PARSER / PIPELINE TEST DRAWING
  ============================================================================
  viewBox matches the currently-configured canvasSize (215.9 x 243 mm), so this
  loads at scale (1,1) with no rescale prompt. Organized into top-level <g>
  groups (one per feature area), each translated into its own horizontal band
  and split into subgroups.

  Every element has an id naming WHAT IT TESTS - not whether the parser
  currently handles it (status belongs in the comments below, since it can
  change). That id is also what the parser prints for a dropped element
  ("Ignored <type> with name <id>") or the text warning, so a dropped case is
  still self-identifying in the console output.

  Status tags in comments:
    [OK]      parsed and drawn today
    [WARN]    parsed but prints a warning (e.g. text)
    [DROP]    element type not handled -> silently ignored ("Ignored <type>")
    [PARTIAL] drawn, but some attribute is ignored (e.g. stroke dashes/markers) -
              future work

  Fill note: readStyle() treats every element as filled black UNLESS fill="none".
  So "outlined" cases MUST set fill="none"; "filled" cases may omit fill.
  Stroke note: the plotter generates real multi-pass strokes from stroke-width,
  linejoin/linecap/miterlimit (see lib/stroke.py). A shape with fill="none" and no
  stroke set draws nothing at all (SVG's default stroke is "none"). stroke-dasharray
  and markers are still parsed-but-ignored [PARTIAL] - dash generation is future work.

  See README.md in this directory for the full group map.
  ============================================================================
-->

<svg
   width="215.9mm"
   height="243mm"
   viewBox="0 0 215.9 243"
   fill="none"
   stroke="black"
   stroke-width="0.3"
   version="1.1"
   id="svg5"
   sodipodi:docname="comprehensive.svg"
   inkscape:version="1.4.4 (dcaf3e7, 2026-05-05)"
   xmlns:inkscape="http://www.inkscape.org/namespaces/inkscape"
   xmlns:sodipodi="http://sodipodi.sourceforge.net/DTD/sodipodi-0.dtd"
   xmlns="http://www.w3.org/2000/svg"
   xmlns:svg="http://www.w3.org/2000/svg">
  <sodipodi:namedview
     id="namedview5"
     pagecolor="#ffffff"
     bordercolor="#000000"
     borderopacity="0.25"
     inkscape:showpageshadow="2"
     inkscape:pageopacity="0.0"
     inkscape:pagecheckerboard="0"
     inkscape:deskcolor="#d1d1d1"
     inkscape:document-units="mm"
     inkscape:zoom="2.2764579"
     inkscape:cx="628.60814"
     inkscape:cy="841.87806"
     inkscape:window-width="3440"
     inkscape:window-height="1369"
     inkscape:window-x="1912"
     inkscape:window-y="-8"
     inkscape:window-maximized="1"
     inkscape:current-layer="svg5" />
  <rect
     id="reference-border"
     x="0.5"
     y="0.5"
     width="214.9"
     height="242"
     fill="none"
     stroke="black"
     stroke-width="0.25" />
  <!-- ======================================================================
       BAND 1: BASIC SHAPES  (local y 0..38)
       ====================================================================== -->
  <g
     id="basic-shapes"
     transform="translate(4,4)">
    <g
       id="basic-primitives">
      <rect
         id="rect-filled"
         x="0"
         y="0"
         width="16"
         height="16"
         fill="black"
         stroke="none" />
      <rect
         id="rounded-rect"
         x="22"
         y="0"
         width="16"
         height="16"
         rx="4"
         ry="4"
         fill="none"
         stroke="black" />
      <circle
         id="circle-filled"
         cx="52"
         cy="8"
         r="8"
         fill="black"
         stroke="none" />
      <ellipse
         id="ellipse-outlined"
         cx="78"
         cy="8"
         rx="10"
         ry="6"
         fill="none"
         stroke="black" />
      <line
         id="line-element"
         x1="96"
         y1="0"
         x2="110"
         y2="16"
         stroke="black" />
      <polyline
         id="polyline-element"
         points="116,16 122,0 128,16 134,0 140,16"
         fill="none"
         stroke="black" />
      <polygon
         id="polygon-element"
         points="150,0 162,4 158,16 146,12"
         fill="black"
         stroke="none" />
    </g>
    <g
       id="basic-curves">
      <path
         id="arc-command-sweep"
         d="M168,16 A8,8 0 0 1 184,16"
         fill="none"
         stroke="black" />
      <path
         id="arc-rotated-ellipse"
         d="M190,16 A10,5 40 0 1 205,10"
         fill="none"
         stroke="black" />
      <path
         id="quadratic-bezier"
         d="M0,34 Q10,20 20,34"
         fill="none"
         stroke="black" />
      <path
         id="cubic-bezier-s-curve"
         d="M26,34 C32,20 40,48 46,34"
         fill="none"
         stroke="black" />
      <path
         id="path-shorthand-h-v-t"
         d="M54,34 h12 v-10 q6,10 12,0 t12,0"
         fill="none"
         stroke="black" />
    </g>
    <g
       id="text">
      <!-- [OK] "Abc" converted via Inkscape Path > Object to Path - the real
           "text as path" test: outlines the parser draws like any other path. -->
      <path
         d="m 126.03809,34 h -0.92725 l -0.6416,-1.82373 h -2.83008 L 120.99756,34 h -0.8833 l 2.38183,-6.543457 h 1.16016 z m -1.83692,-2.570801 -1.14697,-3.212402 -1.15137,3.212402 z m 7.08399,0.0791 q 0,0.615234 -0.17579,1.107422 -0.17138,0.492187 -0.46582,0.826172 -0.31201,0.347167 -0.68554,0.522949 -0.37354,0.171386 -0.82178,0.171386 -0.41748,0 -0.72949,-0.101074 -0.31201,-0.09668 -0.61524,-0.263672 L 127.73877,34 h -0.77344 v -6.837891 h 0.82617 v 2.44336 q 0.34717,-0.285645 0.73829,-0.465821 0.39111,-0.18457 0.8789,-0.18457 0.87012,0 1.3711,0.667969 0.50537,0.667969 0.50537,1.885254 z m -0.85254,0.02197 q 0,-0.878906 -0.29004,-1.331543 -0.29004,-0.457031 -0.93604,-0.457031 -0.36035,0 -0.72949,0.158203 -0.36914,0.153809 -0.68555,0.399903 v 2.8125 q 0.35157,0.158203 0.60205,0.219726 0.25489,0.06152 0.57569,0.06152 0.68555,0 1.07226,-0.448243 0.39112,-0.452636 0.39112,-1.415039 z m 5.77002,2.16211 Q 135.78955,33.890137 135.41602,34 q -0.36915,0.109863 -0.78663,0.109863 -0.53173,0 -0.97558,-0.153808 -0.44385,-0.158203 -0.76026,-0.47461 -0.3208,-0.316406 -0.49658,-0.799804 -0.17578,-0.483399 -0.17578,-1.129395 0,-1.204101 0.65918,-1.889648 0.66358,-0.685547 1.74902,-0.685547 0.42188,0 0.82618,0.118652 0.40869,0.118652 0.74707,0.290039 v 0.918457 h -0.0439 q -0.37793,-0.294433 -0.78223,-0.452637 -0.3999,-0.158203 -0.78222,-0.158203 -0.70313,0 -1.11182,0.47461 -0.4043,0.470215 -0.4043,1.384277 0,0.887695 0.39551,1.366699 0.39991,0.47461 1.12061,0.47461 0.25049,0 0.50976,-0.06592 0.25928,-0.06592 0.46582,-0.171387 0.18018,-0.09228 0.33838,-0.193359 0.15821,-0.105469 0.25049,-0.180176 h 0.0439 z"
         id="text-object-as-path"
         style="font-size:9px;fill:#000000;stroke:none"
         aria-label="Abc" />
      <!-- [WARN] a raw, unconverted <text> element left as-is - tests that the
           parser detects and rejects live text (prints the "does not support
           text" warning naming this id, and omits it from the gcode). Do NOT
           convert this one to a path. -->
      <text
         id="text-raw"
         x="145"
         y="34"
         style="font-size:9px;font-family:sans-serif;fill:#000000;stroke:none">Xyz</text>
    </g>
  </g>
  <!-- ======================================================================
       BAND 2: TRANSFORMS  (band origin y=52)
       Each case transforms the SAME reference "F" glyph so orientation is
       obvious. Glyph is inlined (not <use>) because <use> is [DROP].
       Glyph local bounds ~ 0..7 x, 0..14 y.
       ====================================================================== -->
  <g
     id="transforms"
     transform="translate(4,52)">
    <path
       id="transform-reference-none"
       d="M0,0 L0,14 L7,14 L7,12 L2,12 L2,8 L5,8 L5,6 L2,6 L2,0 Z"
       fill="black"
       stroke="none" />
    <path
       id="transform-translate"
       transform="translate(16,0)"
       d="M0,0 L0,14 L7,14 L7,12 L2,12 L2,8 L5,8 L5,6 L2,6 L2,0 Z"
       fill="black"
       stroke="none" />
    <path
       id="transform-scale-nonuniform"
       transform="translate(30,0) scale(1.6,1)"
       d="M0,0 L0,14 L7,14 L7,12 L2,12 L2,8 L5,8 L5,6 L2,6 L2,0 Z"
       fill="none"
       stroke="black" />
    <path
       id="transform-rotate-about-point"
       transform="translate(56,0) rotate(30,3,7)"
       d="M0,0 L0,14 L7,14 L7,12 L2,12 L2,8 L5,8 L5,6 L2,6 L2,0 Z"
       fill="black"
       stroke="none" />
    <path
       id="transform-skewx-shear"
       transform="translate(78,0) skewX(20)"
       d="M0,0 L0,14 L7,14 L7,12 L2,12 L2,8 L5,8 L5,6 L2,6 L2,0 Z"
       fill="none"
       stroke="black" />
    <path
       id="transform-skewy-shear"
       transform="translate(100,0) skewY(15)"
       d="M0,0 L0,14 L7,14 L7,12 L2,12 L2,8 L5,8 L5,6 L2,6 L2,0 Z"
       fill="none"
       stroke="black" />
    <path
       id="transform-matrix-raw"
       transform="translate(118,0) matrix(1,0.2,0.2,1,0,0)"
       d="M0,0 L0,14 L7,14 L7,12 L2,12 L2,8 L5,8 L5,6 L2,6 L2,0 Z"
       fill="black"
       stroke="none" />
    <path
       id="transform-negative-scale-mirror"
       transform="translate(150,0) scale(-1,1)"
       d="M0,0 L0,14 L7,14 L7,12 L2,12 L2,8 L5,8 L5,6 L2,6 L2,0 Z"
       fill="none"
       stroke="black" />
    <path
       id="transform-on-arc"
       transform="translate(158,0) rotate(20)"
       d="M0,7 A5,5 0 1 1 0,7.01"
       fill="none"
       stroke="black" />
    <g
       id="transform-group-inherited"
       transform="translate(180,0) scale(1.2)">
      <path
         id="transform-group-child-rotate"
         transform="rotate(15)"
         d="M0,0 L0,14 L7,14 L7,12 L2,12 L2,8 L5,8 L5,6 L2,6 L2,0 Z"
         fill="black"
         stroke="none" />
    </g>
  </g>
  <!-- ======================================================================
       BAND 3: FILL  (band origin y=76) - edge cases; basics covered above.
       ====================================================================== -->
  <g
     id="fill"
     transform="translate(4,76)">
    <path
       id="fill-evenodd-donut"
       fill-rule="evenodd"
       fill="black"
       stroke="none"
       d="M0,0 h20 v20 h-20 Z M6,6 h8 v8 h-8 Z" />
    <path
       id="fill-nonzero-donut"
       fill-rule="nonzero"
       fill="black"
       stroke="none"
       d="M26,0 h20 v20 h-20 Z M32,6 v8 h8 v-8 Z" />
    <path
       id="fill-open-path"
       fill="black"
       stroke="none"
       d="M52,0 L72,0 L72,20 L52,20" />
    <path
       id="fill-two-regions"
       fill="black"
       stroke="none"
       d="M78,0 h8 v20 h-8 Z M90,0 h8 v20 h-8 Z" />
    <path
       id="fill-three-regions"
       fill="black"
       stroke="none"
       d="M104,0 h5 v20 h-5 Z M112,0 h5 v20 h-5 Z M120,0 h5 v20 h-5 Z" />
    <path
       id="fill-nested-subpaths"
       fill-rule="evenodd"
       fill="black"
       stroke="none"
       d="M130,0 h24 v20 h-24 Z M134,4 h16 v12 h-16 Z M138,8 h8 v4 h-8 Z" />
    <path
       id="fill-single-line-degenerate"
       fill="black"
       stroke="black"
       d="M160,0 L180,10"
       style="stroke:#000000;stroke-opacity:1" />
    <!-- KNOWN LIMITATION: Path.isFillable()'s plain shoelace area calculation is
         fill-rule-blind, so this bowtie's two opposite-wound lobes cancel to ~zero
         net signed area and it's judged unfillable, even though pyclipper's evenodd
         union (which IS fill-rule-aware) would resolve it into two real triangles if
         ever reached. Since stroke="none" too, this object now draws nothing at all
         (pre-dates stroke generation; previously masked by every RAW_GEOMETRY subpath
         always getting an outline pass regardless of fillability) -->
    <path
       id="fill-figure-eight-selfintersect"
       fill-rule="evenodd"
       fill="black"
       stroke="none"
       d="M186,0 L206,20 L206,0 L186,20 Z" />
  </g>
  <!-- ======================================================================
       BAND 3b: FILL - infill/gap-fill stress cases  (band origin y=106)
       These specifically exercise _gapFill (acute wedges + thin slivers).
       ====================================================================== -->
  <g
     id="fill-gapfill"
     transform="translate(4,106)">
    <path
       id="gapfill-acute-wedge"
       fill="black"
       stroke="none"
       d="M0,0 L40,2 L0,4 Z" />
    <path
       id="gapfill-tapering-slot"
       fill="black"
       stroke="none"
       d="M44,0 L84,0 L84,1 L48,3 L84,5 L84,6 L44,6 Z" />
    <rect
       id="gapfill-below-infill-spacing"
       x="90"
       y="0"
       width="0.5"
       height="6"
       fill="black"
       stroke="none" />
    <rect
       id="gapfill-thin-sliver"
       x="96"
       y="0"
       width="60"
       height="0.9"
       fill="black"
       stroke="none" />
    <circle
       id="gapfill-concentric-circle"
       cx="176"
       cy="6"
       r="6"
       fill="black"
       stroke="none" />
  </g>
  <!-- ======================================================================
       BAND 4: STROKE  (band origin y=122). Real multi-pass stroke generation
       (lib/stroke.py): width/joins/caps/miterlimit are all [OK]; dashes and
       markers stay [PARTIAL] (parsed, not yet drawn).
       ====================================================================== -->
  <!-- Cases use <path> rather than <line>/<polyline> (both [OK], tested
       natively in basic-primitives) purely so every case here has a uniform
       shape. -->
  <g
     id="stroke"
     transform="translate(4,122)"
     fill="none"
     stroke="black">
    <path
       id="stroke-width-thin"
       d="M0,0 L0,16"
       stroke-width="0.2" />
    <path
       id="stroke-width-medium"
       d="M6,0 L6,16"
       stroke-width="1" />
    <path
       id="stroke-width-thick"
       d="M12,0 L12,16"
       stroke-width="2.5" />
    <path
       id="stroke-zigzag"
       d="M20,0 L24,16 L28,0 L32,16 L36,0" />
    <path
       id="stroke-multiple-subpaths"
       d="M44,0 v16 M50,0 v16 M56,0 v16" />
    <path
       id="stroke-self-intersecting"
       d="M64,0 L80,16 M64,16 L80,0" />
    <path
       id="stroke-dash-basic"
       d="M88,0 L88,16"
       stroke-dasharray="2 2" />
    <path
       id="stroke-dash-complex-pattern"
       d="M94,0 L94,16"
       stroke-dasharray="4 1 1 1" />
    <path
       id="stroke-dash-offset"
       d="M100,0 L100,16"
       stroke-dasharray="2 2"
       stroke-dashoffset="1" />
    <!-- joins need a thick, acute-angled V to actually show bevel/round/miter
         differences - the ambient 0.3mm width made them visually identical.
         shifted down (translate y 20 -> 30) so the real 4mm-wide expansion and
         its miter spikes don't run into the dash/width cases above -->
    <g
       id="stroke-joins"
       transform="translate(0,30)"
       stroke-width="4">
      <path
         id="stroke-join-bevel"
         d="M3,18 L6,0 L9,18"
         stroke-linejoin="bevel" />
      <path
         id="stroke-join-round"
         d="M33,18 L36,0 L39,18"
         stroke-linejoin="round" />
      <path
         id="stroke-join-miter-tight-limit"
         d="M63,18 L66,0 L69,18"
         stroke-linejoin="miter"
         stroke-miterlimit="1.5" />
      <path
         id="stroke-join-miter-loose-limit"
         d="M93,18 L96,0 L99,18"
         stroke-linejoin="miter"
         stroke-miterlimit="10" />
    </g>
    <g
       id="stroke-caps-and-markers"
       transform="translate(0,40)">
      <path
         id="stroke-cap-butt"
         d="M160,2 L160,14"
         stroke-width="2"
         stroke-linecap="butt" />
      <path
         id="stroke-cap-round"
         d="M166,2 L166,14"
         stroke-width="2"
         stroke-linecap="round" />
      <path
         id="stroke-cap-square"
         d="M172,2 L172,14"
         stroke-width="2"
         stroke-linecap="square" />
      <path
         id="stroke-markers-start-mid-end"
         d="M182,14 L190,2 L198,14 L206,2"
         marker-start="url(#mk)"
         marker-mid="url(#mk)"
         marker-end="url(#mk)" />
    </g>
    <!-- multi-pass stroke expansion cases (lib/stroke.py) - placed in the space the
         stroke-joins shift (above) freed up. absolute (110,123)-(215,160) and
         (110,160)-(160,185), i.e. local (106,1)-(211,38) and (106,38)-(156,63) here. -->
    <g
       id="stroke-expansion">
      <!-- wide stroke-width >> fillSpacing (0.3mm default) forces multiple concentric
           passes per side (numPasses = ceil(3/0.3) = 10) -->
      <rect
         id="stroke-wide-closed-rect"
         x="110"
         y="5"
         width="20"
         height="20"
         stroke-width="3" />
      <!-- both stroke and fill enabled - fill's first ring must inset by
           strokeWidth/2 + fillSpacing/2 and follow the round linejoin at corners -->
      <rect
         id="stroke-and-fill"
         x="140"
         y="5"
         width="20"
         height="20"
         fill="black"
         stroke-width="3"
         stroke-linejoin="round" />
      <!-- stroke-width scales with a non-degenerate ancestor transform
           (PathObject.applyTransformations) - pre-scale width 1 -> effective ~2 -->
      <g
         transform="translate(170,3) scale(2)"
         id="g1">
        <rect
           id="stroke-scaled-width"
           x="0"
           y="0"
           width="8"
           height="8"
           stroke-width="1" />
      </g>
      <!-- stroke="none" (explicit) and fill="none" (inherited from #stroke) together
           mean nothing is drawn at all - dropRawGeometry should remove this object
           entirely rather than leaving an empty/dangling one -->
      <rect
         id="stroke-none-fill-none-invisible"
         x="115"
         y="45"
         width="10"
         height="10"
         stroke="none" />
    </g>
  </g>
  <!-- ======================================================================
       BAND 5: STRUCTURE / MISC  (band origin y=188)
       ====================================================================== -->
  <g
     id="structure-misc"
     transform="translate(4,188)">
    <g
       id="nested-groups-inherit-fill"
       fill="black"
       stroke="none">
      <g
         transform="translate(0,0)"
         id="g3">
        <g
           transform="translate(2,2)"
           id="g2">
          <rect
             id="nested-groups-leaf-rect"
             x="0"
             y="0"
             width="12"
             height="12" />
        </g>
      </g>
    </g>
    <g
       id="inherit-fill-from-parent"
       fill="black">
      <rect
         id="inherit-fill-applied"
         x="20"
         y="0"
         width="12"
         height="12"
         stroke="none" />
      <rect
         id="inherit-fill-overridden-to-none"
         x="36"
         y="0"
         width="12"
         height="12"
         fill="none"
         stroke="black" />
    </g>
    <use
       id="use-symbol"
       href="#reusable-symbol"
       x="54"
       y="0" />
    <rect
       id="clippath-ignored"
       x="72"
       y="0"
       width="16"
       height="16"
       clip-path="url(#clip)"
       fill="black"
       stroke="none" />
    <rect
       id="mask-ignored"
       x="92"
       y="0"
       width="16"
       height="16"
       mask="url(#mask)"
       fill="black"
       stroke="none" />
    <rect
       id="pattern-fill-ignored"
       x="112"
       y="0"
       width="16"
       height="16"
       fill="url(#pat)"
       stroke="black" />
    <rect
       id="display-none-not-drawn"
       x="132"
       y="0"
       width="16"
       height="16"
       display="none"
       fill="#000000" />
    <rect
       id="visibility-hidden-not-drawn"
       x="152"
       y="0"
       width="16"
       height="16"
       visibility="hidden"
       fill="black" />
    <rect
       id="opacity-ignored"
       x="172"
       y="0"
       width="16"
       height="16"
       fill="black"
       fill-opacity="0.3"
       stroke="none" />
    <!-- regular 7-gon, centered (202,196) absolute / (198,8) local, r~7 - a closed
         path whose segment count (7) doesn't divide evenly into visualization's
         default 6-entry segmentTypes list, so cycling naturally wraps the last
         segment back onto the same color as the first (1-indexed: colors 1..6,1
         under plain modular cycling - segments 1 and 7 are adjacent, since the path
         is closed, so they'd visually merge into one long run). Exercises
         lib/plot.py's _skipRepeatedClosingColor fix under visualization.style ==
         "segment" (already enabled in the shipped config) -->
    <polygon
       id="heptagon-segment-color-wrap"
       points="198.000,1.000 203.473,3.636 204.824,9.558 201.037,14.307 194.963,14.307 191.176,9.558 192.527,3.636"
       fill="none"
       stroke="black"
       stroke-width="0.2" />
  </g>
  <!-- ======================================================================
       BAND 6: DEGENERATE / ROBUSTNESS  (band origin y=214)
       Should never crash the pipeline; most produce nothing.
       ====================================================================== -->
  <g
     id="degenerate"
     transform="translate(4,214)">
    <path
       id="degenerate-zero-length-line"
       d="M0,0 L0,0"
       stroke="black" />
    <circle
       id="degenerate-zero-radius-circle"
       cx="8"
       cy="4"
       r="0"
       fill="black" />
    <path
       id="degenerate-empty-path"
       d=""
       stroke="black" />
    <path
       id="degenerate-coincident-points"
       d="M16,0 L16,0 L28,0 L28,8 L28,8 Z"
       fill="none"
       stroke="black" />
  </g>
  <!-- ======================================================================
       BAND 7: CANVAS BOUNDS  (deliberately hangs off the right/bottom canvas
       edges - exercises lib/plot.py's _splitAtBounds under both
       processing.showOutOfBounds values: true tags the out-of-canvas pieces
       LineType.INVALID instead of dropping them, false (default) crops them.
       Group origin (150,190); canvas edges (215.9,243) fall at local (65.9,53).
       ====================================================================== -->
  <g
     id="canvas-bounds"
     transform="translate(150,190)"
     stroke-width="0.2">
    <!-- entirely beyond both edges - a straight-line clip check per CLAUDE.md's
         _splitAtBounds: an object fully outside is either dropped whole (crop) or
         drawn whole as INVALID (show), no splitting needed -->
    <rect
       id="bounds-fully-outside"
       x="90"
       y="60"
       width="20"
       height="15"
       fill="none"
       stroke="black" />
    <!-- same "fully outside" case as bounds-fully-outside but on an Arc instead of
         Lines - exercises the same bbox fast-path for the other segment type -->
    <circle
       id="bounds-circle-fully-outside"
       cx="68.099998"
       cy="70"
       r="8"
       fill="none"
       stroke="#000000" />
    <!-- 2-segment polyline: inside -> outside (past the bottom edge) -> inside.
         each straight segment can cross a convex rect at most once, so this is 2
         crossings spread across 2 segments, not 1 segment crossing twice -->
    <path
       id="bounds-zigzag-crosses-twice"
       d="M10,20 L10,60 L40,20"
       fill="none"
       stroke="black" />
    <!-- 3-segment polyline alternating inside/outside across the bottom edge:
         in -> out -> in -> out, 3 crossings total -->
    <path
       id="bounds-zigzag-crosses-three-times"
       d="m -37.652612,24.644461 v 45 l 25,-45 v 45"
       fill="none"
       stroke="#000000" />
    <!-- single straight line, both endpoints outside - one below the bottom edge,
         one right of the right edge - clipping through the corner region between
         them. 2 crossings on ONE segment, but on two DIFFERENT edges (unlike
         bounds-zigzag-crosses-twice, which crosses the same edge twice) -->
    <path
       id="bounds-line-crosses-bottom-and-right"
       d="m 47.143287,58.889056 25,-20"
       fill="none"
       stroke="#000000"
       sodipodi:nodetypes="cc" />
    <!-- single straight line spanning the full canvas height and beyond - one
         endpoint above the top edge (local y=-200, abs y=-10), one below the
         bottom edge. 2 crossings on ONE segment, on OPPOSITE edges (top+bottom)
         rather than adjacent ones -->
    <path
       id="bounds-line-crosses-top-and-bottom"
       d="M 62.6,-200 V 60"
       fill="none"
       stroke="#000000" />
    <!-- circle straddling a single edge (the bottom edge, local y=53): the closed
         Arc segment crosses the boundary twice (dips below, comes back up) -->
    <circle
       id="bounds-circle-straddle-edge"
       cx="30.084698"
       cy="51.900002"
       r="6.9000001"
       fill="none"
       stroke="#000000"
       style="stroke-width:0.2" />
    <!-- circle bulging out through both the right and bottom edges without
         reaching the corner itself (center-to-corner distance 48.76 > r=40) - two
         separate outside excursions, one per edge, crossing the boundary 4 times
         total. This is the multi-crossing case _splitAtBounds' coarse scan exists
         for (a circle straddling the corner point itself only crosses twice - a
         single connected excursion through the corner's wedge, same topology as
         bounds-circle-straddle-edge) -->
    <circle
       id="bounds-circle-crosses-two-edges"
       cx="30"
       cy="20"
       r="40"
       fill="none"
       stroke="black" />
  </g>
  <!-- ======================================================================
       DEFS - referenced by structure-misc + stroke markers.
       ====================================================================== -->
  <defs
     id="defs5">
    <symbol
       id="reusable-symbol">
      <rect
         x="0"
         y="0"
         width="12"
         height="12"
         fill="black"
         stroke="none"
         id="rect2" />
    </symbol>
    <marker
       id="mk"
       markerWidth="4"
       markerHeight="4"
       refX="2"
       refY="2">
      <circle
         cx="2"
         cy="2"
         r="1.5"
         fill="black"
         id="circle2" />
    </marker>
    <clipPath
       id="clip">
      <rect
         x="72"
         y="0"
         width="8"
         height="16"
         id="rect3" />
    </clipPath>
    <mask
       id="mask">
      <rect
         x="92"
         y="0"
         width="8"
         height="16"
         fill="white"
         id="rect4" />
    </mask>
    <pattern
       id="pat"
       width="4"
       height="4"
       patternUnits="userSpaceOnUse">
      <rect
         x="0"
         y="0"
         width="2"
         height="2"
         fill="black"
         id="rect5" />
    </pattern>
  </defs>
</svg>
